<svg width="333" height="95" viewBox="0 0 333 95" fill="none" xmlns="http://www.w3.org/2000/svg">
<g clip-path="url(#clip0_713_11)">
<path d="M147.57 20.99V42.43C147.57 46.02 146.68 48.83 144.93 50.79C143.16 52.77 140.6 53.77 137.31 53.77C134.02 53.77 131.46 52.77 129.69 50.79C127.94 48.83 127.05 46.02 127.05 42.43V20.99H118.62V42.98C118.62 46.73 119.42 50.06 120.99 52.88C122.56 55.7 124.77 57.92 127.55 59.48C130.34 61.05 133.62 61.85 137.31 61.85C141 61.85 144.28 61.05 147.07 59.48C149.85 57.92 152.05 55.69 153.63 52.88C155.2 50.06 156 46.73 156 42.98V20.99H147.57Z" fill="black"/>
<path d="M200.84 30.42C199.14 27.29 196.82 24.79 193.88 22.92C190.95 21.05 187.67 20.11 184.03 20.11C181.01 20.11 178.3 20.75 175.9 22.04C174.04 23.03 172.48 24.32 171.21 25.9V6.14999H162.75V61H171.21V56.13C172.46 57.67 173.99 58.94 175.82 59.91C178.22 61.19 180.96 61.84 184.03 61.84C187.66 61.84 190.94 60.92 193.88 59.07C196.81 57.23 199.13 54.74 200.84 51.61C202.54 48.48 203.4 44.96 203.4 41.05C203.4 37.14 202.55 33.54 200.84 30.41V30.42ZM193.22 47.68C192.19 49.64 190.76 51.16 188.95 52.25C187.13 53.34 185.02 53.88 182.62 53.88C180.22 53.88 178.19 53.34 176.38 52.25C174.56 51.16 173.15 49.65 172.15 47.72C171.14 45.79 170.64 43.54 170.64 40.97C170.64 38.4 171.14 36.22 172.15 34.27C173.16 32.32 174.58 30.79 176.42 29.7C178.26 28.61 180.36 28.07 182.7 28.07C185.04 28.07 187.13 28.61 188.94 29.7C190.75 30.79 192.18 32.31 193.21 34.27C194.24 36.23 194.76 38.46 194.76 40.97C194.76 43.48 194.24 45.72 193.21 47.67L193.22 47.68Z" fill="black"/>
<path d="M227.03 61.84C223.06 61.84 219.49 60.92 216.3 59.07C213.12 57.23 210.6 54.73 208.76 51.57C206.92 48.41 205.99 44.88 205.99 40.97C205.99 37.06 206.91 33.46 208.76 30.33C210.6 27.2 213.12 24.72 216.3 22.87C219.48 21.03 223.06 20.1 227.03 20.1C230.1 20.1 232.98 20.7 235.66 21.9C238.34 23.1 240.6 24.79 242.45 26.97L237 32.5C235.77 31.1 234.3 30.04 232.6 29.32C230.9 28.59 229.04 28.23 227.03 28.23C224.63 28.23 222.49 28.77 220.62 29.86C218.75 30.95 217.28 32.44 216.22 34.34C215.16 36.24 214.63 38.45 214.63 40.96C214.63 43.47 215.16 45.61 216.22 47.54C217.28 49.47 218.75 50.99 220.62 52.11C222.49 53.23 224.63 53.79 227.03 53.79C229.04 53.79 230.9 53.43 232.6 52.7C234.3 51.97 235.77 50.89 237 49.43L242.53 54.96C240.63 57.2 238.34 58.9 235.66 60.07C232.98 61.24 230.1 61.83 227.03 61.83V61.84Z" fill="black"/>
<path d="M257.82 29.7C259.64 28.61 261.72 28.07 264.06 28.07C266.4 28.07 268.56 28.62 270.34 29.7C272.13 30.79 273.53 32.31 274.53 34.27C275.05 35.28 275.43 36.36 275.69 37.51H283.92V20.94H275.54V25.93C274.28 24.33 272.73 23.03 270.89 22.04C268.52 20.75 265.79 20.11 262.72 20.11C259.09 20.11 255.79 21.05 252.83 22.92C249.87 24.79 247.54 27.3 245.83 30.46C244.13 33.61 243.27 37.15 243.27 41.06C243.27 44.97 244.12 48.49 245.83 51.62C247.53 54.75 249.86 57.24 252.83 59.08C255.79 60.93 259.09 61.85 262.72 61.85C265.79 61.85 268.52 61.21 270.89 59.92C272.74 58.92 274.28 57.62 275.54 56.03V61.01H283.92V44.48H275.69C275.21 46.73 274.22 48.67 272.74 50.28C270.53 52.69 267.64 53.89 264.06 53.89C261.72 53.89 259.63 53.34 257.82 52.26C256.01 51.17 254.57 49.65 253.51 47.69C252.45 45.73 251.91 43.5 251.91 40.99C251.91 38.48 252.44 36.24 253.51 34.29C254.57 32.33 256.01 30.81 257.82 29.72V29.7Z" fill="black"/>
<path d="M329.69 30.42C327.99 27.29 325.67 24.79 322.73 22.92C319.8 21.05 316.52 20.11 312.89 20.11C309.87 20.11 307.16 20.75 304.76 22.04C302.91 23.03 301.34 24.32 300.07 25.9V6.14999H291.61V37.51H299.84C300.09 36.36 300.48 35.27 300.99 34.27C302 32.31 303.42 30.79 305.26 29.7C307.11 28.61 309.2 28.07 311.54 28.07C313.88 28.07 315.97 28.62 317.78 29.7C319.6 30.79 321.02 32.31 322.05 34.27C323.08 36.22 323.6 38.46 323.6 40.97C323.6 43.48 323.08 45.72 322.05 47.67C321.01 49.62 319.59 51.14 317.78 52.24C315.96 53.33 313.85 53.87 311.45 53.87C309.05 53.87 307.02 53.32 305.21 52.24C303.39 51.15 301.99 49.64 300.98 47.71C300.46 46.71 300.08 45.63 299.83 44.46H291.6V60.99H300.06V56.12C301.3 57.66 302.84 58.93 304.67 59.9C307.07 61.19 309.81 61.83 312.88 61.83C316.51 61.83 319.79 60.91 322.72 59.06C325.65 57.22 327.97 54.73 329.68 51.6C331.38 48.47 332.24 44.95 332.24 41.04C332.24 37.13 331.39 33.53 329.68 30.4L329.69 30.42Z" fill="black"/>
<path d="M65.69 94.89C76.42 94.89 82.58 94.89 88.73 88.74C94.88 82.59 94.88 76.43 94.88 65.7V29.2C94.88 18.47 94.88 12.31 88.73 6.16C82.58 0 76.42 0 65.69 0H29.2C18.47 0 12.31 0 6.16 6.15C0 12.31 0 18.46 0 29.2V65.7C0 76.43 0 82.59 6.15 88.74C12.3 94.89 18.46 94.89 29.19 94.89H65.69Z" fill="black"/>
<path d="M56.4799 47.44L70.7699 41.94C72.2599 41.37 73.2499 39.93 73.2499 38.33V32.54C73.2499 30.47 72.1399 28.55 70.3499 27.51L50.3499 15.96C48.5499 14.92 46.3399 14.92 44.5399 15.96L24.9699 27.26C24.5599 27.5 24.5399 28.07 24.9199 28.35L40.4499 39.33C41.2399 39.89 42.2899 39.97 43.1399 39.51C44.5199 38.76 46.1199 38.35 47.8199 38.42C52.3499 38.6 56.0999 42.2 56.4499 46.73C56.8599 52.07 52.6299 56.52 47.3699 56.48C42.3799 56.44 38.4099 52.26 38.4099 47.28V45.56C38.4099 44.72 37.9999 43.94 37.3199 43.45L22.6499 33.08C22.2199 32.78 21.6299 33.08 21.6299 33.61V62.36C21.6299 64.43 22.7399 66.35 24.5299 67.39L44.5299 78.94C46.3299 79.98 48.5399 79.98 50.3399 78.94L70.3399 67.39C72.1399 66.35 73.2399 64.44 73.2399 62.36V56.57C73.2399 54.97 72.2499 53.53 70.7599 52.96L56.4699 47.46L56.4799 47.44Z" fill="white"/>
<path d="M124.55 88.73V71.15H127.44V88.73H124.55ZM126.54 80.95V78.31H136.36V80.95H126.54ZM135.73 88.73V71.15H138.62V88.73H135.73Z" fill="black"/>
<path d="M165.56 88.98C164.3 88.98 163.13 88.75 162.04 88.28C160.95 87.81 160 87.16 159.18 86.33C158.36 85.5 157.72 84.54 157.26 83.44C156.8 82.34 156.57 81.17 156.57 79.91C156.57 78.65 156.8 77.48 157.26 76.39C157.72 75.3 158.36 74.34 159.17 73.51C159.98 72.68 160.93 72.04 162.01 71.58C163.09 71.12 164.26 70.89 165.51 70.89C166.76 70.89 167.93 71.12 169.01 71.58C170.09 72.04 171.04 72.69 171.86 73.51C172.68 74.34 173.32 75.3 173.78 76.4C174.24 77.5 174.47 78.67 174.47 79.93C174.47 81.19 174.24 82.36 173.78 83.46C173.32 84.56 172.68 85.52 171.87 86.34C171.06 87.16 170.11 87.81 169.03 88.27C167.95 88.74 166.79 88.97 165.55 88.97L165.56 88.98ZM165.51 86.22C166.7 86.22 167.74 85.95 168.64 85.42C169.54 84.88 170.24 84.14 170.75 83.2C171.26 82.25 171.52 81.16 171.52 79.92C171.52 79 171.37 78.16 171.08 77.4C170.79 76.64 170.37 75.98 169.84 75.42C169.31 74.86 168.67 74.43 167.94 74.13C167.21 73.83 166.4 73.68 165.52 73.68C164.35 73.68 163.31 73.94 162.42 74.47C161.52 75 160.82 75.73 160.31 76.67C159.8 77.61 159.54 78.7 159.54 79.93C159.54 80.85 159.69 81.7 159.98 82.48C160.27 83.26 160.68 83.92 161.21 84.48C161.74 85.03 162.37 85.46 163.11 85.77C163.85 86.08 164.65 86.23 165.52 86.23L165.51 86.22Z" fill="black"/>
<path d="M192.46 88.73V71.15H195.35V88.73H192.46ZM194.44 88.73V86.09H203.63V88.73H194.44Z" fill="black"/>
<path d="M221.31 88.73V71.15H224.2V88.73H221.31ZM223.29 88.73V86.09H227.91C229.12 86.09 230.17 85.83 231.09 85.31C232 84.79 232.71 84.07 233.22 83.14C233.73 82.21 233.99 81.14 233.99 79.91C233.99 78.68 233.73 77.64 233.21 76.72C232.69 75.8 231.98 75.08 231.06 74.56C230.15 74.04 229.1 73.78 227.91 73.78H223.29V71.14H227.99C229.26 71.14 230.44 71.36 231.53 71.81C232.62 72.25 233.57 72.87 234.38 73.67C235.19 74.47 235.82 75.39 236.28 76.46C236.73 77.52 236.96 78.68 236.96 79.94C236.96 81.2 236.73 82.33 236.28 83.41C235.83 84.48 235.2 85.41 234.4 86.21C233.6 87.01 232.65 87.62 231.56 88.07C230.47 88.51 229.3 88.74 228.04 88.74H223.29V88.73Z" fill="black"/>
<path d="M254.94 88.73V71.15H257.83V88.73H254.94Z" fill="black"/>
<path d="M276.68 88.73V71.15H278.69L279.57 74.47V88.73H276.68ZM288.86 88.73L278.34 74.99L278.69 71.15L289.21 84.89L288.86 88.73ZM288.86 88.73L287.98 85.64V71.15H290.87V88.73H288.86Z" fill="black"/>
<path d="M317.72 88.98C316.52 88.98 315.38 88.75 314.3 88.28C313.23 87.81 312.29 87.16 311.49 86.33C310.69 85.5 310.05 84.54 309.59 83.44C309.13 82.34 308.9 81.17 308.9 79.91C308.9 78.65 309.13 77.48 309.59 76.39C310.05 75.3 310.69 74.34 311.5 73.51C312.31 72.68 313.27 72.04 314.36 71.58C315.46 71.12 316.64 70.89 317.91 70.89C319.3 70.89 320.59 71.16 321.78 71.69C322.97 72.23 323.96 72.99 324.77 73.98L322.81 75.94C322.29 75.2 321.6 74.64 320.73 74.25C319.86 73.86 318.92 73.66 317.92 73.66C316.71 73.66 315.66 73.92 314.74 74.45C313.83 74.98 313.12 75.71 312.62 76.65C312.12 77.59 311.87 78.68 311.87 79.91C311.87 81.14 312.13 82.24 312.64 83.19C313.15 84.14 313.84 84.88 314.71 85.41C315.58 85.95 316.57 86.21 317.67 86.21C318.84 86.21 319.85 86 320.7 85.57C321.55 85.14 322.19 84.51 322.65 83.66C323.1 82.81 323.33 81.77 323.33 80.53L325.14 81.84H317.63V79.2H326.32V79.6C326.32 81.69 325.95 83.43 325.2 84.82C324.46 86.21 323.44 87.25 322.15 87.93C320.86 88.62 319.39 88.96 317.73 88.96L317.72 88.98Z" fill="black"/>
</g>
<defs>
<clipPath id="clip0_713_11">
<rect width="332.24" height="94.89" fill="white"/>
</clipPath>
</defs>
</svg>
